<?xml version="1.0" encoding="UTF-8" standalone="no"?>
<!DOCTYPE svg PUBLIC "-//W3C//DTD SVG 1.1//EN" "http://www.w3.org/Graphics/SVG/1.1/DTD/svg11.dtd">
<svg width="100%" height="100%" viewBox="0 0 145 179" version="1.1" xmlns="http://www.w3.org/2000/svg" xmlns:xlink="http://www.w3.org/1999/xlink" xml:space="preserve" xmlns:serif="http://www.serif.com/" style="fill-rule:evenodd;clip-rule:evenodd;stroke-linejoin:round;stroke-miterlimit:2;">
    <g transform="matrix(1,0,0,1,-6100,-835)">
        <g>
            <g transform="matrix(1,0,0,1.0113,442,540.712)">
                <path d="M5803,343.408L5750,291L5678.63,291C5667.24,291 5658,300.134 5658,311.401C5658,345.464 5658,413.536 5658,447.599C5658,458.866 5667.24,468 5678.63,468C5706.21,468 5754.79,468 5782.37,468C5793.76,468 5803,458.866 5803,447.599L5803,343.408Z" style="fill:rgb(189,119,48);"/>
            </g>
            <g transform="matrix(1,0,0,1,442,543)">
                <path d="M5746,299L5746,347L5795,347L5746,299Z" style="fill:white;"/>
            </g>
            <g transform="matrix(1.69231,0,0,1.69231,-3342.08,-640.038)">
                <g transform="matrix(18,0,0,18,5598.01,938.407)">
                    <path d="M0.312,0.01C0.274,0.01 0.238,0.005 0.204,-0.005C0.169,-0.014 0.139,-0.029 0.112,-0.048C0.085,-0.067 0.064,-0.091 0.049,-0.12C0.033,-0.149 0.024,-0.182 0.023,-0.22C0.023,-0.226 0.025,-0.231 0.029,-0.236C0.033,-0.24 0.038,-0.242 0.045,-0.242L0.18,-0.242C0.189,-0.242 0.197,-0.24 0.202,-0.235C0.206,-0.23 0.211,-0.223 0.214,-0.214C0.218,-0.195 0.225,-0.18 0.234,-0.169C0.243,-0.157 0.254,-0.148 0.269,-0.143C0.283,-0.137 0.299,-0.134 0.317,-0.134C0.35,-0.134 0.376,-0.145 0.394,-0.167C0.412,-0.188 0.421,-0.22 0.421,-0.262L0.421,-0.551L0.097,-0.551C0.09,-0.551 0.085,-0.553 0.08,-0.558C0.075,-0.563 0.072,-0.569 0.072,-0.576L0.072,-0.675C0.072,-0.682 0.075,-0.688 0.08,-0.693C0.085,-0.698 0.09,-0.7 0.097,-0.7L0.581,-0.7C0.588,-0.7 0.595,-0.698 0.6,-0.693C0.604,-0.688 0.607,-0.682 0.607,-0.675L0.607,-0.257C0.607,-0.199 0.595,-0.15 0.57,-0.111C0.545,-0.071 0.51,-0.041 0.466,-0.021C0.421,-0 0.37,0.01 0.312,0.01Z" style="fill:white;fill-rule:nonzero;"/>
                </g>
                <g transform="matrix(18,0,0,18,5609.66,938.407)">
                    <path d="M0.331,0.01C0.264,0.01 0.209,0.001 0.165,-0.019C0.121,-0.038 0.088,-0.062 0.065,-0.093C0.042,-0.124 0.03,-0.156 0.029,-0.191C0.029,-0.196 0.031,-0.201 0.036,-0.206C0.04,-0.21 0.045,-0.212 0.051,-0.212L0.177,-0.212C0.186,-0.212 0.194,-0.21 0.199,-0.207C0.204,-0.204 0.208,-0.199 0.212,-0.194C0.217,-0.184 0.225,-0.174 0.235,-0.165C0.244,-0.156 0.257,-0.148 0.273,-0.143C0.289,-0.137 0.308,-0.134 0.331,-0.134C0.37,-0.134 0.399,-0.14 0.419,-0.152C0.438,-0.164 0.448,-0.18 0.448,-0.201C0.448,-0.216 0.443,-0.229 0.432,-0.238C0.421,-0.247 0.404,-0.256 0.381,-0.264C0.357,-0.271 0.325,-0.279 0.286,-0.287C0.235,-0.298 0.192,-0.312 0.157,-0.329C0.121,-0.345 0.094,-0.368 0.075,-0.396C0.056,-0.423 0.047,-0.458 0.047,-0.499C0.047,-0.54 0.058,-0.576 0.082,-0.608C0.105,-0.64 0.137,-0.665 0.178,-0.683C0.219,-0.701 0.268,-0.71 0.325,-0.71C0.371,-0.71 0.412,-0.704 0.447,-0.692C0.482,-0.68 0.511,-0.664 0.535,-0.644C0.559,-0.624 0.577,-0.603 0.59,-0.581C0.602,-0.558 0.608,-0.536 0.609,-0.515C0.609,-0.51 0.607,-0.505 0.604,-0.501C0.6,-0.496 0.595,-0.494 0.588,-0.494L0.456,-0.494C0.449,-0.494 0.442,-0.495 0.437,-0.498C0.432,-0.501 0.427,-0.505 0.423,-0.511C0.419,-0.526 0.409,-0.539 0.392,-0.55C0.375,-0.561 0.352,-0.566 0.325,-0.566C0.296,-0.566 0.273,-0.561 0.257,-0.551C0.24,-0.54 0.232,-0.524 0.232,-0.503C0.232,-0.49 0.237,-0.478 0.246,-0.468C0.255,-0.458 0.27,-0.449 0.291,-0.442C0.312,-0.435 0.34,-0.427 0.377,-0.419C0.438,-0.408 0.487,-0.394 0.524,-0.377C0.561,-0.36 0.589,-0.338 0.607,-0.311C0.624,-0.284 0.633,-0.25 0.633,-0.209C0.633,-0.164 0.62,-0.125 0.594,-0.092C0.568,-0.059 0.533,-0.034 0.488,-0.017C0.442,0.001 0.39,0.01 0.331,0.01Z" style="fill:white;fill-rule:nonzero;"/>
                </g>
                <g transform="matrix(18,0,0,18,5621.16,938.407)">
                    <path d="M0.356,0.01C0.295,0.01 0.241,0 0.196,-0.02C0.151,-0.04 0.115,-0.07 0.09,-0.111C0.065,-0.151 0.051,-0.201 0.048,-0.262C0.047,-0.291 0.047,-0.32 0.047,-0.349C0.047,-0.378 0.047,-0.406 0.048,-0.435C0.051,-0.495 0.065,-0.546 0.091,-0.587C0.116,-0.628 0.152,-0.658 0.198,-0.679C0.243,-0.7 0.296,-0.71 0.356,-0.71C0.417,-0.71 0.47,-0.7 0.515,-0.679C0.56,-0.658 0.596,-0.628 0.622,-0.587C0.648,-0.546 0.662,-0.495 0.664,-0.435C0.665,-0.406 0.666,-0.378 0.666,-0.349C0.666,-0.32 0.665,-0.291 0.664,-0.262C0.662,-0.201 0.648,-0.151 0.623,-0.111C0.597,-0.07 0.561,-0.04 0.516,-0.02C0.471,0 0.417,0.01 0.356,0.01ZM0.356,-0.134C0.391,-0.134 0.42,-0.145 0.443,-0.166C0.465,-0.187 0.477,-0.221 0.478,-0.268C0.479,-0.297 0.48,-0.325 0.48,-0.351C0.48,-0.377 0.479,-0.404 0.478,-0.432C0.477,-0.463 0.471,-0.489 0.461,-0.509C0.45,-0.528 0.436,-0.543 0.418,-0.552C0.4,-0.561 0.379,-0.566 0.356,-0.566C0.333,-0.566 0.313,-0.561 0.295,-0.552C0.277,-0.543 0.263,-0.528 0.252,-0.509C0.241,-0.489 0.235,-0.463 0.234,-0.432C0.233,-0.404 0.233,-0.377 0.233,-0.351C0.233,-0.325 0.233,-0.297 0.234,-0.268C0.236,-0.221 0.248,-0.187 0.271,-0.166C0.293,-0.145 0.321,-0.134 0.356,-0.134Z" style="fill:white;fill-rule:nonzero;"/>
                </g>
                <g transform="matrix(18,0,0,18,5633.55,938.407)">
                    <path d="M0.095,-0C0.088,-0 0.082,-0.003 0.077,-0.008C0.072,-0.012 0.07,-0.018 0.07,-0.025L0.07,-0.675C0.07,-0.682 0.072,-0.688 0.077,-0.693C0.082,-0.698 0.088,-0.7 0.095,-0.7L0.201,-0.7C0.212,-0.7 0.221,-0.698 0.226,-0.693C0.231,-0.688 0.234,-0.684 0.235,-0.681L0.479,-0.297L0.479,-0.675C0.479,-0.682 0.481,-0.688 0.486,-0.693C0.491,-0.698 0.497,-0.7 0.504,-0.7L0.624,-0.7C0.631,-0.7 0.637,-0.698 0.642,-0.693C0.647,-0.688 0.649,-0.682 0.649,-0.675L0.649,-0.026C0.649,-0.019 0.647,-0.012 0.642,-0.008C0.637,-0.003 0.631,-0 0.624,-0L0.517,-0C0.506,-0 0.499,-0.003 0.494,-0.008C0.489,-0.013 0.485,-0.017 0.484,-0.019L0.24,-0.389L0.24,-0.025C0.24,-0.018 0.238,-0.012 0.233,-0.008C0.228,-0.003 0.222,-0 0.215,-0L0.095,-0Z" style="fill:white;fill-rule:nonzero;"/>
                </g>
            </g>
        </g>
    </g>
</svg>
