<?xml version="1.0" encoding="UTF-8" standalone="no"?>
<!DOCTYPE svg PUBLIC "-//W3C//DTD SVG 1.1//EN" "http://www.w3.org/Graphics/SVG/1.1/DTD/svg11.dtd">
<svg width="100%" height="100%" viewBox="0 0 145 179" version="1.1" xmlns="http://www.w3.org/2000/svg" xmlns:xlink="http://www.w3.org/1999/xlink" xml:space="preserve" xmlns:serif="http://www.serif.com/" style="fill-rule:evenodd;clip-rule:evenodd;stroke-linejoin:round;stroke-miterlimit:2;">
    <g transform="matrix(1,0,0,1,-6435,-835)">
        <g>
            <g transform="matrix(1,0,0,1.0113,777,540.712)">
                <path d="M5803,343.408L5750,291L5678.63,291C5667.24,291 5658,300.134 5658,311.401L5658,447.599C5658,458.866 5667.24,468 5678.63,468C5706.21,468 5754.79,468 5782.37,468C5793.76,468 5803,458.866 5803,447.599L5803,343.408Z" style="fill:rgb(225,178,36);"/>
            </g>
            <g transform="matrix(1,0,0,1,777,543)">
                <path d="M5746,299L5746,347L5795,347L5746,299Z" style="fill:white;"/>
            </g>
            <g transform="matrix(1.69231,0,0,1.69231,-3007.08,-640.038)">
                <g transform="matrix(18,0,0,18,5598.2,938.407)">
                    <path d="M0.359,0.01C0.296,0.01 0.241,-0.001 0.196,-0.022C0.15,-0.043 0.115,-0.073 0.09,-0.114C0.065,-0.154 0.051,-0.203 0.048,-0.261C0.047,-0.29 0.047,-0.32 0.047,-0.353C0.047,-0.385 0.047,-0.416 0.048,-0.445C0.051,-0.502 0.065,-0.55 0.09,-0.589C0.115,-0.628 0.151,-0.658 0.197,-0.679C0.243,-0.7 0.297,-0.71 0.359,-0.71C0.409,-0.71 0.453,-0.704 0.492,-0.692C0.531,-0.679 0.563,-0.663 0.59,-0.642C0.616,-0.621 0.636,-0.599 0.65,-0.574C0.664,-0.549 0.671,-0.525 0.672,-0.501C0.672,-0.495 0.67,-0.49 0.666,-0.486C0.661,-0.482 0.656,-0.48 0.65,-0.48L0.504,-0.48C0.497,-0.48 0.491,-0.481 0.488,-0.484C0.484,-0.486 0.481,-0.489 0.478,-0.494C0.473,-0.504 0.467,-0.515 0.458,-0.526C0.448,-0.537 0.436,-0.546 0.421,-0.554C0.405,-0.562 0.384,-0.566 0.359,-0.566C0.322,-0.566 0.292,-0.556 0.27,-0.536C0.248,-0.516 0.236,-0.484 0.234,-0.44C0.232,-0.383 0.232,-0.325 0.234,-0.266C0.236,-0.219 0.248,-0.186 0.271,-0.165C0.294,-0.144 0.324,-0.134 0.362,-0.134C0.387,-0.134 0.409,-0.138 0.429,-0.147C0.448,-0.156 0.464,-0.169 0.475,-0.188C0.486,-0.206 0.492,-0.229 0.492,-0.258L0.492,-0.277L0.398,-0.277C0.391,-0.277 0.385,-0.28 0.38,-0.285C0.375,-0.29 0.373,-0.296 0.373,-0.303L0.373,-0.377C0.373,-0.384 0.375,-0.391 0.38,-0.396C0.385,-0.401 0.391,-0.403 0.398,-0.403L0.65,-0.403C0.657,-0.403 0.663,-0.401 0.668,-0.396C0.673,-0.391 0.675,-0.384 0.675,-0.377L0.675,-0.263C0.675,-0.206 0.662,-0.157 0.636,-0.116C0.61,-0.075 0.573,-0.044 0.526,-0.023C0.478,-0.001 0.422,0.01 0.359,0.01Z" style="fill:white;fill-rule:nonzero;"/>
                </g>
                <g transform="matrix(18,0,0,18,5610.73,938.407)">
                    <path d="M0.095,-0C0.088,-0 0.082,-0.003 0.077,-0.008C0.072,-0.012 0.07,-0.018 0.07,-0.025L0.07,-0.675C0.07,-0.682 0.072,-0.688 0.077,-0.693C0.082,-0.698 0.088,-0.7 0.095,-0.7L0.375,-0.7C0.43,-0.7 0.478,-0.692 0.52,-0.675C0.56,-0.658 0.592,-0.632 0.616,-0.598C0.639,-0.564 0.65,-0.521 0.65,-0.469C0.65,-0.418 0.639,-0.375 0.616,-0.342C0.592,-0.309 0.56,-0.284 0.52,-0.268C0.478,-0.252 0.43,-0.244 0.375,-0.244L0.256,-0.244L0.256,-0.025C0.256,-0.018 0.254,-0.012 0.249,-0.008C0.243,-0.003 0.237,-0 0.23,-0L0.095,-0ZM0.253,-0.382L0.37,-0.382C0.399,-0.382 0.422,-0.389 0.439,-0.404C0.456,-0.419 0.464,-0.441 0.464,-0.471C0.464,-0.496 0.457,-0.518 0.442,-0.535C0.427,-0.552 0.403,-0.561 0.37,-0.561L0.253,-0.561L0.253,-0.382Z" style="fill:white;fill-rule:nonzero;"/>
                </g>
                <g transform="matrix(18,0,0,18,5622.47,938.407)">
                    <path d="M0.095,-0C0.088,-0 0.082,-0.003 0.077,-0.008C0.072,-0.012 0.07,-0.018 0.07,-0.025L0.07,-0.675C0.07,-0.682 0.072,-0.688 0.077,-0.693C0.082,-0.698 0.088,-0.7 0.095,-0.7L0.221,-0.7C0.228,-0.7 0.234,-0.698 0.239,-0.693C0.244,-0.688 0.246,-0.682 0.246,-0.675L0.246,-0.453L0.431,-0.681C0.434,-0.685 0.438,-0.689 0.445,-0.694C0.451,-0.698 0.459,-0.7 0.47,-0.7L0.614,-0.7C0.62,-0.7 0.625,-0.698 0.629,-0.694C0.633,-0.689 0.635,-0.684 0.635,-0.679C0.635,-0.674 0.634,-0.67 0.632,-0.667L0.392,-0.365L0.65,-0.033C0.653,-0.03 0.654,-0.026 0.654,-0.021C0.654,-0.016 0.652,-0.011 0.648,-0.007C0.644,-0.002 0.639,-0 0.633,-0L0.484,-0C0.472,-0 0.463,-0.003 0.457,-0.008C0.45,-0.013 0.446,-0.017 0.444,-0.02L0.246,-0.267L0.246,-0.025C0.246,-0.018 0.244,-0.012 0.239,-0.008C0.234,-0.003 0.228,-0 0.221,-0L0.095,-0Z" style="fill:white;fill-rule:nonzero;"/>
                </g>
                <g transform="matrix(18,0,0,18,5633.34,938.407)">
                    <path d="M0.359,0.01C0.296,0.01 0.241,-0.001 0.196,-0.022C0.15,-0.043 0.115,-0.073 0.09,-0.114C0.065,-0.154 0.051,-0.203 0.048,-0.261C0.047,-0.29 0.047,-0.32 0.047,-0.353C0.047,-0.385 0.047,-0.416 0.048,-0.445C0.051,-0.502 0.065,-0.55 0.09,-0.589C0.115,-0.628 0.151,-0.658 0.197,-0.679C0.243,-0.7 0.297,-0.71 0.359,-0.71C0.409,-0.71 0.453,-0.704 0.492,-0.692C0.531,-0.679 0.563,-0.663 0.59,-0.642C0.616,-0.621 0.636,-0.599 0.65,-0.574C0.664,-0.549 0.671,-0.525 0.672,-0.501C0.672,-0.495 0.67,-0.49 0.666,-0.486C0.661,-0.482 0.656,-0.48 0.65,-0.48L0.504,-0.48C0.497,-0.48 0.491,-0.481 0.488,-0.484C0.484,-0.486 0.481,-0.489 0.478,-0.494C0.473,-0.504 0.467,-0.515 0.458,-0.526C0.448,-0.537 0.436,-0.546 0.421,-0.554C0.405,-0.562 0.384,-0.566 0.359,-0.566C0.322,-0.566 0.292,-0.556 0.27,-0.536C0.248,-0.516 0.236,-0.484 0.234,-0.44C0.232,-0.383 0.232,-0.325 0.234,-0.266C0.236,-0.219 0.248,-0.186 0.271,-0.165C0.294,-0.144 0.324,-0.134 0.362,-0.134C0.387,-0.134 0.409,-0.138 0.429,-0.147C0.448,-0.156 0.464,-0.169 0.475,-0.188C0.486,-0.206 0.492,-0.229 0.492,-0.258L0.492,-0.277L0.398,-0.277C0.391,-0.277 0.385,-0.28 0.38,-0.285C0.375,-0.29 0.373,-0.296 0.373,-0.303L0.373,-0.377C0.373,-0.384 0.375,-0.391 0.38,-0.396C0.385,-0.401 0.391,-0.403 0.398,-0.403L0.65,-0.403C0.657,-0.403 0.663,-0.401 0.668,-0.396C0.673,-0.391 0.675,-0.384 0.675,-0.377L0.675,-0.263C0.675,-0.206 0.662,-0.157 0.636,-0.116C0.61,-0.075 0.573,-0.044 0.526,-0.023C0.478,-0.001 0.422,0.01 0.359,0.01Z" style="fill:white;fill-rule:nonzero;"/>
                </g>
            </g>
        </g>
    </g>
</svg>
