<?xml version="1.0" encoding="UTF-8" standalone="no"?>
<!DOCTYPE svg PUBLIC "-//W3C//DTD SVG 1.1//EN" "http://www.w3.org/Graphics/SVG/1.1/DTD/svg11.dtd">
<svg width="100%" height="100%" viewBox="0 0 145 179" version="1.1" xmlns="http://www.w3.org/2000/svg" xmlns:xlink="http://www.w3.org/1999/xlink" xml:space="preserve" xmlns:serif="http://www.serif.com/" style="fill-rule:evenodd;clip-rule:evenodd;stroke-linejoin:round;stroke-miterlimit:2;">
    <g transform="matrix(1,0,0,1,-5935,-835)">
        <g>
            <g transform="matrix(1,0,0,1.0113,277,540.712)">
                <path d="M5803,343.408L5750,291L5678.63,291C5667.24,291 5658,300.134 5658,311.401L5658,447.599C5658,458.866 5667.24,468 5678.63,468C5706.21,468 5754.79,468 5782.37,468C5793.76,468 5803,458.866 5803,447.599C5803,412.263 5803,343.408 5803,343.408Z" style="fill:rgb(91,160,170);"/>
            </g>
            <g transform="matrix(1,0,0,1,277,543)">
                <path d="M5746,299L5746,347L5795,347L5746,299Z" style="fill:white;"/>
            </g>
            <g transform="matrix(1.69231,0,0,1.69231,-3507.08,-640.038)">
                <g transform="matrix(18,0,0,18,5604.63,938.407)">
                    <path d="M0.331,0.01C0.264,0.01 0.209,0.001 0.165,-0.019C0.121,-0.038 0.088,-0.062 0.065,-0.093C0.042,-0.124 0.03,-0.156 0.029,-0.191C0.029,-0.196 0.031,-0.201 0.036,-0.206C0.04,-0.21 0.045,-0.212 0.051,-0.212L0.177,-0.212C0.186,-0.212 0.194,-0.21 0.199,-0.207C0.204,-0.204 0.208,-0.199 0.212,-0.194C0.217,-0.184 0.225,-0.174 0.235,-0.165C0.244,-0.156 0.257,-0.148 0.273,-0.143C0.289,-0.137 0.308,-0.134 0.331,-0.134C0.37,-0.134 0.399,-0.14 0.419,-0.152C0.438,-0.164 0.448,-0.18 0.448,-0.201C0.448,-0.216 0.443,-0.229 0.432,-0.238C0.421,-0.247 0.404,-0.256 0.381,-0.264C0.357,-0.271 0.325,-0.279 0.286,-0.287C0.235,-0.298 0.192,-0.312 0.157,-0.329C0.121,-0.345 0.094,-0.368 0.075,-0.396C0.056,-0.423 0.047,-0.458 0.047,-0.499C0.047,-0.54 0.058,-0.576 0.082,-0.608C0.105,-0.64 0.137,-0.665 0.178,-0.683C0.219,-0.701 0.268,-0.71 0.325,-0.71C0.371,-0.71 0.412,-0.704 0.447,-0.692C0.482,-0.68 0.511,-0.664 0.535,-0.644C0.559,-0.624 0.577,-0.603 0.59,-0.581C0.602,-0.558 0.608,-0.536 0.609,-0.515C0.609,-0.51 0.607,-0.505 0.604,-0.501C0.6,-0.496 0.595,-0.494 0.588,-0.494L0.456,-0.494C0.449,-0.494 0.442,-0.495 0.437,-0.498C0.432,-0.501 0.427,-0.505 0.423,-0.511C0.419,-0.526 0.409,-0.539 0.392,-0.55C0.375,-0.561 0.352,-0.566 0.325,-0.566C0.296,-0.566 0.273,-0.561 0.257,-0.551C0.24,-0.54 0.232,-0.524 0.232,-0.503C0.232,-0.49 0.237,-0.478 0.246,-0.468C0.255,-0.458 0.27,-0.449 0.291,-0.442C0.312,-0.435 0.34,-0.427 0.377,-0.419C0.438,-0.408 0.487,-0.394 0.524,-0.377C0.561,-0.36 0.589,-0.338 0.607,-0.311C0.624,-0.284 0.633,-0.25 0.633,-0.209C0.633,-0.164 0.62,-0.125 0.594,-0.092C0.568,-0.059 0.533,-0.034 0.488,-0.017C0.442,0.001 0.39,0.01 0.331,0.01Z" style="fill:white;fill-rule:nonzero;"/>
                </g>
                <g transform="matrix(18,0,0,18,5615.93,938.407)">
                    <path d="M0.03,-0C0.025,-0 0.02,-0.002 0.016,-0.007C0.011,-0.011 0.009,-0.016 0.009,-0.021C0.009,-0.024 0.009,-0.027 0.01,-0.03L0.245,-0.672C0.247,-0.679 0.251,-0.686 0.258,-0.692C0.264,-0.697 0.273,-0.7 0.284,-0.7L0.432,-0.7C0.443,-0.7 0.452,-0.697 0.459,-0.692C0.465,-0.686 0.469,-0.679 0.471,-0.672L0.705,-0.03C0.706,-0.027 0.707,-0.024 0.707,-0.021C0.707,-0.016 0.705,-0.011 0.701,-0.007C0.696,-0.002 0.691,-0 0.685,-0L0.562,-0C0.552,-0 0.545,-0.003 0.54,-0.008C0.535,-0.012 0.531,-0.017 0.53,-0.021L0.491,-0.123L0.224,-0.123L0.186,-0.021C0.185,-0.017 0.182,-0.012 0.177,-0.008C0.172,-0.003 0.164,-0 0.153,-0L0.03,-0ZM0.265,-0.267L0.451,-0.267L0.358,-0.531L0.265,-0.267Z" style="fill:white;fill-rule:nonzero;"/>
                </g>
                <g transform="matrix(18,0,0,18,5627.4,938.407)">
                    <path d="M0.27,-0C0.259,-0 0.25,-0.003 0.243,-0.009C0.236,-0.015 0.232,-0.022 0.229,-0.03L0.025,-0.67C0.024,-0.673 0.023,-0.676 0.023,-0.679C0.023,-0.684 0.025,-0.689 0.03,-0.694C0.034,-0.698 0.039,-0.7 0.045,-0.7L0.169,-0.7C0.18,-0.7 0.188,-0.697 0.194,-0.691C0.2,-0.685 0.204,-0.679 0.205,-0.674L0.347,-0.212L0.488,-0.674C0.49,-0.679 0.494,-0.685 0.5,-0.691C0.505,-0.697 0.513,-0.7 0.524,-0.7L0.649,-0.7C0.654,-0.7 0.659,-0.698 0.664,-0.694C0.668,-0.689 0.67,-0.684 0.67,-0.679C0.67,-0.676 0.669,-0.673 0.668,-0.67L0.464,-0.03C0.462,-0.022 0.458,-0.015 0.451,-0.009C0.444,-0.003 0.435,-0 0.423,-0L0.27,-0Z" style="fill:white;fill-rule:nonzero;"/>
                </g>
            </g>
        </g>
    </g>
</svg>
