<?xml version="1.0" encoding="UTF-8" standalone="no"?>
<!DOCTYPE svg PUBLIC "-//W3C//DTD SVG 1.1//EN" "http://www.w3.org/Graphics/SVG/1.1/DTD/svg11.dtd">
<svg width="100%" height="100%" viewBox="0 0 145 179" version="1.1" xmlns="http://www.w3.org/2000/svg" xmlns:xlink="http://www.w3.org/1999/xlink" xml:space="preserve" xmlns:serif="http://www.serif.com/" style="fill-rule:evenodd;clip-rule:evenodd;stroke-linejoin:round;stroke-miterlimit:2;">
    <g transform="matrix(1,0,0,1,-6263,-835)">
        <g>
            <g transform="matrix(1,0,0,1.0113,605,540.712)">
                <path d="M5803,343.408L5750,291L5678.63,291C5667.24,291 5658,300.134 5658,311.401L5658,447.599C5658,458.866 5667.24,468 5678.63,468C5706.21,468 5754.79,468 5782.37,468C5793.76,468 5803,458.866 5803,447.599C5803,412.263 5803,343.408 5803,343.408Z" style="fill:rgb(164,86,213);"/>
            </g>
            <g transform="matrix(1,0,0,1,605,543)">
                <path d="M5746,299L5746,347L5795,347L5746,299Z" style="fill:white;"/>
            </g>
            <g transform="matrix(1.69231,0,0,1.69231,-3179.08,-640.038)">
                <g transform="matrix(18,0,0,18,5603.93,938.407)">
                    <path d="M0.331,0.01C0.264,0.01 0.209,0.001 0.165,-0.019C0.121,-0.038 0.088,-0.062 0.065,-0.093C0.042,-0.124 0.03,-0.156 0.029,-0.191C0.029,-0.196 0.031,-0.201 0.036,-0.206C0.04,-0.21 0.045,-0.212 0.051,-0.212L0.177,-0.212C0.186,-0.212 0.194,-0.21 0.199,-0.207C0.204,-0.204 0.208,-0.199 0.212,-0.194C0.217,-0.184 0.225,-0.174 0.235,-0.165C0.244,-0.156 0.257,-0.148 0.273,-0.143C0.289,-0.137 0.308,-0.134 0.331,-0.134C0.37,-0.134 0.399,-0.14 0.419,-0.152C0.438,-0.164 0.448,-0.18 0.448,-0.201C0.448,-0.216 0.443,-0.229 0.432,-0.238C0.421,-0.247 0.404,-0.256 0.381,-0.264C0.357,-0.271 0.325,-0.279 0.286,-0.287C0.235,-0.298 0.192,-0.312 0.157,-0.329C0.121,-0.345 0.094,-0.368 0.075,-0.396C0.056,-0.423 0.047,-0.458 0.047,-0.499C0.047,-0.54 0.058,-0.576 0.082,-0.608C0.105,-0.64 0.137,-0.665 0.178,-0.683C0.219,-0.701 0.268,-0.71 0.325,-0.71C0.371,-0.71 0.412,-0.704 0.447,-0.692C0.482,-0.68 0.511,-0.664 0.535,-0.644C0.559,-0.624 0.577,-0.603 0.59,-0.581C0.602,-0.558 0.608,-0.536 0.609,-0.515C0.609,-0.51 0.607,-0.505 0.604,-0.501C0.6,-0.496 0.595,-0.494 0.588,-0.494L0.456,-0.494C0.449,-0.494 0.442,-0.495 0.437,-0.498C0.432,-0.501 0.427,-0.505 0.423,-0.511C0.419,-0.526 0.409,-0.539 0.392,-0.55C0.375,-0.561 0.352,-0.566 0.325,-0.566C0.296,-0.566 0.273,-0.561 0.257,-0.551C0.24,-0.54 0.232,-0.524 0.232,-0.503C0.232,-0.49 0.237,-0.478 0.246,-0.468C0.255,-0.458 0.27,-0.449 0.291,-0.442C0.312,-0.435 0.34,-0.427 0.377,-0.419C0.438,-0.408 0.487,-0.394 0.524,-0.377C0.561,-0.36 0.589,-0.338 0.607,-0.311C0.624,-0.284 0.633,-0.25 0.633,-0.209C0.633,-0.164 0.62,-0.125 0.594,-0.092C0.568,-0.059 0.533,-0.034 0.488,-0.017C0.442,0.001 0.39,0.01 0.331,0.01Z" style="fill:white;fill-rule:nonzero;"/>
                </g>
                <g transform="matrix(18,0,0,18,5615.43,938.407)">
                    <path d="M0.095,-0C0.088,-0 0.082,-0.002 0.077,-0.007C0.072,-0.012 0.07,-0.018 0.07,-0.025L0.07,-0.675C0.07,-0.682 0.072,-0.688 0.077,-0.693C0.082,-0.698 0.088,-0.7 0.095,-0.7L0.224,-0.7C0.231,-0.7 0.238,-0.698 0.243,-0.693C0.247,-0.688 0.25,-0.682 0.25,-0.675L0.25,-0.434L0.496,-0.434L0.496,-0.675C0.496,-0.682 0.498,-0.688 0.503,-0.693C0.508,-0.698 0.514,-0.7 0.521,-0.7L0.65,-0.7C0.657,-0.7 0.663,-0.698 0.668,-0.693C0.673,-0.688 0.675,-0.682 0.675,-0.675L0.675,-0.025C0.675,-0.018 0.673,-0.012 0.668,-0.008C0.663,-0.003 0.657,-0 0.65,-0L0.521,-0C0.514,-0 0.508,-0.003 0.503,-0.008C0.498,-0.012 0.496,-0.018 0.496,-0.025L0.496,-0.274L0.25,-0.274L0.25,-0.025C0.25,-0.018 0.247,-0.012 0.243,-0.008C0.238,-0.003 0.231,-0 0.224,-0L0.095,-0Z" style="fill:white;fill-rule:nonzero;"/>
                </g>
                <g transform="matrix(18,0,0,18,5628.41,938.407)">
                    <path d="M0.095,-0C0.088,-0 0.082,-0.003 0.077,-0.008C0.072,-0.012 0.07,-0.018 0.07,-0.025L0.07,-0.675C0.07,-0.682 0.072,-0.688 0.077,-0.693C0.082,-0.698 0.088,-0.7 0.095,-0.7L0.375,-0.7C0.43,-0.7 0.478,-0.692 0.52,-0.675C0.56,-0.658 0.592,-0.632 0.616,-0.598C0.639,-0.564 0.65,-0.521 0.65,-0.469C0.65,-0.418 0.639,-0.375 0.616,-0.342C0.592,-0.309 0.56,-0.284 0.52,-0.268C0.478,-0.252 0.43,-0.244 0.375,-0.244L0.256,-0.244L0.256,-0.025C0.256,-0.018 0.254,-0.012 0.249,-0.008C0.243,-0.003 0.237,-0 0.23,-0L0.095,-0ZM0.253,-0.382L0.37,-0.382C0.399,-0.382 0.422,-0.389 0.439,-0.404C0.456,-0.419 0.464,-0.441 0.464,-0.471C0.464,-0.496 0.457,-0.518 0.442,-0.535C0.427,-0.552 0.403,-0.561 0.37,-0.561L0.253,-0.561L0.253,-0.382Z" style="fill:white;fill-rule:nonzero;"/>
                </g>
            </g>
        </g>
    </g>
</svg>
