<?xml version="1.0" encoding="UTF-8" standalone="no"?>
<!DOCTYPE svg PUBLIC "-//W3C//DTD SVG 1.1//EN" "http://www.w3.org/Graphics/SVG/1.1/DTD/svg11.dtd">
<svg width="100%" height="100%" viewBox="0 0 145 179" version="1.1" xmlns="http://www.w3.org/2000/svg" xmlns:xlink="http://www.w3.org/1999/xlink" xml:space="preserve" xmlns:serif="http://www.serif.com/" style="fill-rule:evenodd;clip-rule:evenodd;stroke-linejoin:round;stroke-miterlimit:2;">
    <g transform="matrix(1,0,0,1,-5760,-835)">
        <g>
            <g transform="matrix(1,0,0,1.0113,102,540.712)">
                <path d="M5803,343.408L5750,291L5678.63,291C5667.24,291 5658,300.134 5658,311.401C5658,345.464 5658,413.536 5658,447.599C5658,458.866 5667.24,468 5678.63,468C5706.21,468 5754.79,468 5782.37,468C5793.76,468 5803,458.866 5803,447.599C5803,412.263 5803,343.408 5803,343.408Z" style="fill:rgb(87,163,73);"/>
            </g>
            <g transform="matrix(1,0,0,1,102,543)">
                <path d="M5746,299L5746,347L5795,347L5746,299Z" style="fill:white;"/>
            </g>
            <g transform="matrix(1.69231,0,0,1.69231,-3682.08,-640.038)">
                <g transform="matrix(18,0,0,18,5599.35,938.407)">
                    <path d="M0.033,-0C0.027,-0 0.022,-0.002 0.018,-0.007C0.013,-0.011 0.011,-0.016 0.011,-0.021C0.011,-0.023 0.011,-0.025 0.012,-0.027C0.013,-0.029 0.014,-0.031 0.015,-0.033L0.233,-0.357L0.031,-0.667C0.029,-0.671 0.028,-0.675 0.028,-0.679C0.028,-0.684 0.03,-0.689 0.034,-0.694C0.038,-0.698 0.043,-0.7 0.049,-0.7L0.194,-0.7C0.204,-0.7 0.212,-0.698 0.217,-0.693C0.222,-0.688 0.226,-0.683 0.229,-0.679L0.348,-0.498L0.469,-0.679C0.472,-0.683 0.476,-0.688 0.481,-0.693C0.486,-0.698 0.494,-0.7 0.504,-0.7L0.642,-0.7C0.647,-0.7 0.652,-0.698 0.657,-0.694C0.661,-0.689 0.663,-0.684 0.663,-0.679C0.663,-0.674 0.662,-0.67 0.659,-0.667L0.456,-0.358L0.676,-0.033C0.677,-0.031 0.678,-0.029 0.679,-0.027C0.679,-0.025 0.679,-0.023 0.679,-0.021C0.679,-0.016 0.677,-0.011 0.673,-0.007C0.669,-0.002 0.664,-0 0.658,-0L0.509,-0C0.499,-0 0.491,-0.003 0.486,-0.008C0.48,-0.012 0.476,-0.017 0.474,-0.02L0.342,-0.212L0.211,-0.02C0.209,-0.017 0.205,-0.012 0.2,-0.008C0.195,-0.003 0.187,-0 0.177,-0L0.033,-0Z" style="fill:white;fill-rule:nonzero;"/>
                </g>
                <g transform="matrix(18,0,0,18,5611.33,938.407)">
                    <path d="M0.095,-0C0.088,-0 0.082,-0.003 0.077,-0.008C0.072,-0.012 0.07,-0.018 0.07,-0.025L0.07,-0.675C0.07,-0.682 0.072,-0.688 0.077,-0.693C0.082,-0.698 0.088,-0.7 0.095,-0.7L0.227,-0.7C0.234,-0.7 0.24,-0.698 0.245,-0.693C0.25,-0.688 0.252,-0.682 0.252,-0.675L0.252,-0.151L0.555,-0.151C0.562,-0.151 0.568,-0.149 0.573,-0.144C0.578,-0.139 0.58,-0.132 0.58,-0.125L0.58,-0.025C0.58,-0.018 0.578,-0.012 0.573,-0.008C0.568,-0.003 0.562,-0 0.555,-0L0.095,-0Z" style="fill:white;fill-rule:nonzero;"/>
                </g>
                <g transform="matrix(18,0,0,18,5621.65,938.407)">
                    <path d="M0.331,0.01C0.264,0.01 0.209,0.001 0.165,-0.019C0.121,-0.038 0.088,-0.062 0.065,-0.093C0.042,-0.124 0.03,-0.156 0.029,-0.191C0.029,-0.196 0.031,-0.201 0.036,-0.206C0.04,-0.21 0.045,-0.212 0.051,-0.212L0.177,-0.212C0.186,-0.212 0.194,-0.21 0.199,-0.207C0.204,-0.204 0.208,-0.199 0.212,-0.194C0.217,-0.184 0.225,-0.174 0.235,-0.165C0.244,-0.156 0.257,-0.148 0.273,-0.143C0.289,-0.137 0.308,-0.134 0.331,-0.134C0.37,-0.134 0.399,-0.14 0.419,-0.152C0.438,-0.164 0.448,-0.18 0.448,-0.201C0.448,-0.216 0.443,-0.229 0.432,-0.238C0.421,-0.247 0.404,-0.256 0.381,-0.264C0.357,-0.271 0.325,-0.279 0.286,-0.287C0.235,-0.298 0.192,-0.312 0.157,-0.329C0.121,-0.345 0.094,-0.368 0.075,-0.396C0.056,-0.423 0.047,-0.458 0.047,-0.499C0.047,-0.54 0.058,-0.576 0.082,-0.608C0.105,-0.64 0.137,-0.665 0.178,-0.683C0.219,-0.701 0.268,-0.71 0.325,-0.71C0.371,-0.71 0.412,-0.704 0.447,-0.692C0.482,-0.68 0.511,-0.664 0.535,-0.644C0.559,-0.624 0.577,-0.603 0.59,-0.581C0.602,-0.558 0.608,-0.536 0.609,-0.515C0.609,-0.51 0.607,-0.505 0.604,-0.501C0.6,-0.496 0.595,-0.494 0.588,-0.494L0.456,-0.494C0.449,-0.494 0.442,-0.495 0.437,-0.498C0.432,-0.501 0.427,-0.505 0.423,-0.511C0.419,-0.526 0.409,-0.539 0.392,-0.55C0.375,-0.561 0.352,-0.566 0.325,-0.566C0.296,-0.566 0.273,-0.561 0.257,-0.551C0.24,-0.54 0.232,-0.524 0.232,-0.503C0.232,-0.49 0.237,-0.478 0.246,-0.468C0.255,-0.458 0.27,-0.449 0.291,-0.442C0.312,-0.435 0.34,-0.427 0.377,-0.419C0.438,-0.408 0.487,-0.394 0.524,-0.377C0.561,-0.36 0.589,-0.338 0.607,-0.311C0.624,-0.284 0.633,-0.25 0.633,-0.209C0.633,-0.164 0.62,-0.125 0.594,-0.092C0.568,-0.059 0.533,-0.034 0.488,-0.017C0.442,0.001 0.39,0.01 0.331,0.01Z" style="fill:white;fill-rule:nonzero;"/>
                </g>
                <g transform="matrix(18,0,0,18,5632.74,938.407)">
                    <path d="M0.033,-0C0.027,-0 0.022,-0.002 0.018,-0.007C0.013,-0.011 0.011,-0.016 0.011,-0.021C0.011,-0.023 0.011,-0.025 0.012,-0.027C0.013,-0.029 0.014,-0.031 0.015,-0.033L0.233,-0.357L0.031,-0.667C0.029,-0.671 0.028,-0.675 0.028,-0.679C0.028,-0.684 0.03,-0.689 0.034,-0.694C0.038,-0.698 0.043,-0.7 0.049,-0.7L0.194,-0.7C0.204,-0.7 0.212,-0.698 0.217,-0.693C0.222,-0.688 0.226,-0.683 0.229,-0.679L0.348,-0.498L0.469,-0.679C0.472,-0.683 0.476,-0.688 0.481,-0.693C0.486,-0.698 0.494,-0.7 0.504,-0.7L0.642,-0.7C0.647,-0.7 0.652,-0.698 0.657,-0.694C0.661,-0.689 0.663,-0.684 0.663,-0.679C0.663,-0.674 0.662,-0.67 0.659,-0.667L0.456,-0.358L0.676,-0.033C0.677,-0.031 0.678,-0.029 0.679,-0.027C0.679,-0.025 0.679,-0.023 0.679,-0.021C0.679,-0.016 0.677,-0.011 0.673,-0.007C0.669,-0.002 0.664,-0 0.658,-0L0.509,-0C0.499,-0 0.491,-0.003 0.486,-0.008C0.48,-0.012 0.476,-0.017 0.474,-0.02L0.342,-0.212L0.211,-0.02C0.209,-0.017 0.205,-0.012 0.2,-0.008C0.195,-0.003 0.187,-0 0.177,-0L0.033,-0Z" style="fill:white;fill-rule:nonzero;"/>
                </g>
            </g>
        </g>
    </g>
</svg>
